<svg version="1.2" xmlns="http://www.w3.org/2000/svg" viewBox="0 0 1080 1080" width="1080" height="1080">
	<title>Fundo</title>
	<style>
		.s0 { fill: #d66e3e } 
	</style>
	<path id="Background" class="s0" d="m402.9 500c-222.8 0-402.9-158.7-402.9-355 0-196.3 180.1-355 402.9-355 222.7 0 402.8 158.7 402.8 355 0 196.3-180.1 355-402.8 355z"/>
	<path id="Forma 1" class="s0" d="m1238.9 196.2c160.4 202.9 151.8 476.2-19.2 611.3-171 135.2-438.9 80.4-599.3-122.6-160.4-202.9-151.8-476.2 19.2-611.3 171.1-135.2 438.9-80.4 599.3 122.6z"/>
	<path id="Forma 2" class="s0" d="m867 494c-148.8 0-269-150.6-269-337 0-186.4 120.2-337 269-337 148.8 0 269 150.6 269 337 0 186.4-120.2 337-269 337z"/>
	<path id="Forma 3" class="s0" d="m62 210c-39.8 0-72-63.3-72-141.5 0-78.2 32.2-141.5 72-141.5 39.8 0 72 63.3 72 141.5 0 78.2-32.2 141.5-72 141.5z"/>
</svg>